<svg id="svg" xmlns="http://www.w3.org/2000/svg" xmlns:xlink="http://www.w3.org/1999/xlink" width="400" height="169.84126984126985" viewBox="0, 0, 400,169.84126984126985" version="1.1"><g id="svgg"><path id="path0" d="M263.368 9.707 C 262.049 9.823,261.513 9.951,260.905 10.296 C 260.477 10.538,259.611 10.881,258.980 11.059 C 258.349 11.236,257.470 11.643,257.025 11.962 C 256.581 12.281,256.007 12.595,255.750 12.659 C 255.492 12.724,254.881 13.150,254.392 13.605 C 253.903 14.061,253.389 14.474,253.248 14.523 C 253.108 14.572,252.766 14.936,252.489 15.332 C 252.211 15.727,251.817 16.184,251.614 16.348 C 251.410 16.511,251.033 17.007,250.776 17.452 C 250.519 17.896,250.102 18.527,249.850 18.854 C 249.598 19.180,249.337 19.677,249.269 19.958 C 249.202 20.238,248.921 20.941,248.645 21.519 C 247.805 23.284,247.654 23.894,247.450 26.324 C 247.112 30.360,247.478 33.252,248.640 35.720 C 248.912 36.299,249.189 36.964,249.255 37.197 C 249.322 37.431,249.583 37.890,249.836 38.217 C 250.089 38.544,250.603 39.384,250.979 40.085 C 251.354 40.786,251.770 41.536,251.903 41.753 C 252.129 42.123,252.105 42.183,251.533 42.688 C 251.197 42.984,250.764 43.459,250.571 43.743 C 250.378 44.026,250.035 44.357,249.810 44.478 C 249.584 44.599,249.274 44.909,249.121 45.168 C 248.969 45.427,248.573 45.822,248.243 46.046 C 247.913 46.271,247.603 46.578,247.554 46.729 C 247.429 47.115,245.463 49.247,244.083 50.493 C 243.853 50.701,243.471 51.091,243.234 51.361 C 242.997 51.631,242.615 52.014,242.386 52.211 C 241.943 52.591,241.797 52.751,240.647 54.116 C 240.244 54.593,239.792 55.128,239.642 55.305 C 239.492 55.482,239.224 55.752,239.048 55.906 C 238.871 56.060,238.005 56.920,237.124 57.817 C 236.243 58.714,235.465 59.448,235.395 59.448 C 235.324 59.448,235.224 59.582,235.171 59.745 C 235.118 59.909,234.827 60.305,234.523 60.626 C 234.219 60.948,233.694 61.578,233.356 62.028 C 233.018 62.477,232.522 63.015,232.252 63.223 C 231.983 63.430,231.660 63.739,231.536 63.909 C 231.325 64.196,231.142 64.370,230.602 64.798 C 230.484 64.892,230.186 65.149,229.938 65.371 L 229.489 65.774 228.587 65.465 C 228.091 65.296,227.318 64.858,226.869 64.492 C 226.420 64.126,225.529 63.572,224.890 63.261 C 224.250 62.950,223.680 62.619,223.622 62.527 C 223.492 62.315,222.093 61.917,220.610 61.670 C 219.987 61.566,219.206 61.368,218.874 61.229 C 218.046 60.883,213.858 60.872,213.195 61.215 C 212.942 61.346,212.239 61.546,211.633 61.659 C 209.801 62.001,208.687 62.361,208.200 62.768 C 207.945 62.981,207.460 63.247,207.122 63.359 C 206.238 63.650,205.831 63.885,205.260 64.433 C 203.695 65.935,202.664 65.798,200.671 63.822 C 199.800 62.958,198.987 62.174,198.864 62.080 C 198.205 61.575,196.295 59.862,194.936 58.556 C 194.086 57.739,193.326 57.070,193.249 57.070 C 193.172 57.070,192.782 56.745,192.383 56.348 C 191.985 55.951,191.433 55.432,191.158 55.195 C 190.883 54.958,190.498 54.576,190.302 54.346 C 190.107 54.116,189.782 53.815,189.580 53.678 C 189.378 53.540,189.175 53.311,189.129 53.168 C 189.083 53.025,188.758 52.718,188.408 52.485 C 188.057 52.252,187.146 51.449,186.383 50.701 C 185.620 49.954,184.760 49.119,184.472 48.846 C 184.185 48.574,183.949 48.294,183.949 48.223 C 183.949 48.153,183.676 47.927,183.343 47.721 C 183.009 47.515,182.283 46.921,181.728 46.401 L 180.719 45.455 180.818 44.596 C 180.873 44.123,180.980 43.584,181.057 43.397 C 181.134 43.210,181.294 42.790,181.412 42.463 C 181.530 42.136,181.717 41.754,181.826 41.614 C 182.347 40.946,182.473 40.169,182.483 37.557 L 182.494 34.887 181.877 33.622 C 181.537 32.926,181.138 31.988,180.988 31.537 C 180.834 31.071,180.499 30.533,180.211 30.292 C 179.933 30.057,179.584 29.609,179.435 29.295 C 179.286 28.982,178.971 28.598,178.735 28.444 C 178.499 28.289,178.064 27.913,177.767 27.608 C 177.471 27.302,177.040 26.996,176.809 26.927 C 176.579 26.857,176.008 26.542,175.541 26.226 C 173.143 24.604,166.585 24.605,164.173 26.228 C 163.699 26.547,163.136 26.858,162.921 26.921 C 162.586 27.019,161.434 28.106,159.502 30.149 C 159.237 30.429,158.965 30.849,158.896 31.083 C 158.828 31.316,158.528 31.966,158.230 32.527 C 157.116 34.620,156.789 38.727,157.582 40.679 C 158.670 43.360,159.190 44.386,159.659 44.781 C 159.940 45.017,160.170 45.299,160.170 45.408 C 160.170 45.689,162.022 47.453,162.668 47.787 C 162.966 47.941,163.424 48.290,163.685 48.561 C 164.024 48.912,164.480 49.129,165.265 49.310 C 165.873 49.450,167.017 49.731,167.808 49.934 C 169.463 50.359,170.284 50.332,172.399 49.786 C 173.193 49.582,174.154 49.334,174.534 49.237 C 174.914 49.140,175.541 48.810,175.928 48.503 C 176.317 48.196,177.103 47.815,177.684 47.652 L 178.736 47.356 179.516 48.160 C 179.946 48.602,180.488 49.086,180.722 49.235 C 180.955 49.384,181.237 49.628,181.348 49.777 C 181.459 49.926,181.994 50.386,182.537 50.799 C 183.080 51.211,183.588 51.648,183.665 51.770 C 183.963 52.239,187.254 55.239,188.153 55.862 C 188.456 56.072,188.705 56.353,188.705 56.487 C 188.705 56.621,188.770 56.730,188.851 56.730 C 188.931 56.730,189.493 57.208,190.101 57.792 C 190.708 58.376,191.609 59.197,192.102 59.618 C 193.441 60.759,193.800 61.114,193.800 61.295 C 193.800 61.385,194.058 61.618,194.373 61.813 C 194.689 62.007,195.123 62.424,195.338 62.738 C 195.554 63.053,195.975 63.442,196.275 63.604 C 198.400 64.748,201.197 68.496,200.525 69.299 C 200.264 69.611,199.745 70.727,199.745 70.975 C 199.745 71.075,199.513 71.420,199.230 71.743 C 198.879 72.142,198.639 72.675,198.481 73.405 C 197.912 76.028,197.822 76.374,197.599 76.811 C 197.023 77.941,197.074 82.428,197.681 83.909 C 197.911 84.472,198.314 85.975,198.551 87.161 C 198.672 87.762,198.908 88.299,199.182 88.595 C 199.423 88.855,199.734 89.340,199.872 89.672 C 200.011 90.004,200.378 90.558,200.689 90.902 C 201.719 92.044,201.833 93.502,200.943 94.147 C 200.787 94.260,200.410 94.718,200.105 95.165 C 199.801 95.612,199.015 96.491,198.359 97.118 C 197.704 97.746,197.002 98.447,196.800 98.677 C 196.598 98.907,196.212 99.289,195.942 99.526 C 195.672 99.763,195.328 100.101,195.178 100.277 C 195.027 100.452,194.618 100.886,194.268 101.240 C 193.917 101.594,193.631 101.964,193.631 102.061 C 193.631 102.158,192.197 103.687,190.446 105.457 C 186.692 109.252,185.987 109.992,185.987 110.137 C 185.987 110.196,185.318 110.893,184.501 111.686 C 183.684 112.479,182.938 113.208,182.845 113.307 C 182.752 113.406,182.236 113.935,181.699 114.484 C 181.161 115.032,180.722 115.542,180.721 115.617 C 180.721 115.692,180.491 115.907,180.211 116.093 C 179.930 116.280,179.657 116.569,179.604 116.735 C 179.344 117.544,177.145 119.430,176.589 119.320 C 175.620 119.129,175.040 118.840,174.499 118.277 C 174.206 117.972,173.747 117.674,173.480 117.615 C 172.456 117.387,171.384 116.995,171.007 116.710 C 170.330 116.196,166.428 115.555,164.501 115.640 C 161.429 115.776,159.983 116.009,158.787 116.561 C 158.100 116.879,157.107 117.271,156.581 117.432 C 156.056 117.593,155.449 117.914,155.233 118.144 C 155.016 118.374,154.375 118.782,153.807 119.050 C 153.196 119.339,152.679 119.715,152.542 119.970 C 152.415 120.208,152.092 120.493,151.824 120.604 C 151.557 120.715,151.338 120.868,151.338 120.943 C 151.338 121.019,150.949 121.480,150.474 121.968 C 149.999 122.456,149.416 123.162,149.179 123.538 C 148.941 123.914,148.564 124.419,148.340 124.659 C 148.116 124.899,147.859 125.401,147.767 125.775 C 147.676 126.149,147.374 126.913,147.095 127.474 C 145.338 131.008,145.327 138.483,147.074 141.850 C 147.334 142.351,147.646 143.062,147.768 143.431 C 147.889 143.799,148.133 144.255,148.309 144.444 C 148.485 144.633,148.857 145.191,149.136 145.685 C 149.414 146.178,149.701 146.582,149.772 146.582 C 149.844 146.582,150.264 147.060,150.706 147.645 C 151.186 148.281,151.953 149.010,152.613 149.457 C 153.219 149.868,153.715 150.270,153.715 150.349 C 153.715 150.428,154.117 150.686,154.607 150.923 C 155.098 151.159,155.805 151.574,156.178 151.844 C 156.552 152.115,157.163 152.386,157.537 152.446 C 157.911 152.507,159.019 152.835,160.000 153.174 L 161.783 153.792 164.756 153.779 C 167.697 153.765,167.742 153.759,169.057 153.220 C 169.788 152.920,170.858 152.594,171.435 152.496 C 172.104 152.381,172.692 152.154,173.057 151.869 C 173.879 151.227,174.434 150.911,175.161 150.672 C 175.512 150.556,175.878 150.313,175.975 150.133 C 176.071 149.952,176.447 149.617,176.809 149.388 C 177.172 149.159,177.602 148.746,177.765 148.470 C 177.928 148.193,178.253 147.866,178.486 147.742 C 178.719 147.617,179.158 147.134,179.460 146.667 C 179.762 146.200,180.162 145.657,180.349 145.461 C 180.535 145.264,180.899 144.653,181.158 144.102 C 181.416 143.551,181.683 143.062,181.751 143.015 C 182.058 142.803,182.572 141.485,182.680 140.637 C 182.745 140.123,182.857 139.626,182.929 139.533 C 183.138 139.263,183.454 137.780,183.617 136.306 C 183.700 135.558,183.799 134.768,183.837 134.550 C 183.911 134.137,183.244 130.803,182.946 130.091 C 182.852 129.866,182.699 129.159,182.606 128.520 C 182.492 127.732,182.302 127.180,182.013 126.801 C 181.779 126.495,181.363 125.756,181.088 125.160 C 180.814 124.564,180.392 123.893,180.151 123.669 C 179.908 123.443,179.592 122.848,179.443 122.335 C 179.126 121.246,178.858 121.661,181.826 118.654 C 182.947 117.518,184.361 115.988,184.968 115.252 C 185.575 114.517,187.077 112.907,188.306 111.674 C 189.534 110.441,190.655 109.209,190.797 108.936 C 190.938 108.662,191.251 108.332,191.493 108.203 C 191.734 108.074,191.932 107.902,191.932 107.821 C 191.932 107.740,192.372 107.223,192.909 106.672 C 193.446 106.121,193.962 105.591,194.055 105.494 C 194.149 105.397,194.550 105.013,194.947 104.640 C 195.344 104.267,195.669 103.902,195.670 103.828 C 195.671 103.755,195.938 103.512,196.264 103.290 C 196.591 103.068,196.858 102.785,196.858 102.662 C 196.858 102.539,198.310 100.978,200.085 99.193 C 201.860 97.409,203.312 95.889,203.312 95.816 C 203.312 95.118,204.792 95.314,205.724 96.136 C 206.397 96.729,206.549 96.813,207.286 96.998 C 207.711 97.106,208.259 97.378,208.504 97.605 C 209.045 98.106,210.342 98.462,212.484 98.696 C 214.051 98.867,215.810 99.355,216.450 99.796 C 217.113 100.254,217.264 100.898,217.427 103.949 C 217.514 105.584,217.698 107.725,217.837 108.707 C 217.976 109.690,218.089 110.769,218.089 111.107 C 218.089 111.445,218.215 112.017,218.368 112.378 C 218.666 113.082,218.802 114.393,219.103 119.490 C 219.208 121.265,219.405 123.181,219.541 123.748 C 219.677 124.314,219.788 125.155,219.789 125.616 C 219.789 126.077,219.904 126.673,220.044 126.941 C 220.487 127.791,220.380 128.035,219.359 128.502 C 218.843 128.738,218.037 129.157,217.568 129.434 C 217.099 129.710,216.635 129.936,216.536 129.936 C 216.157 129.936,215.091 130.524,214.522 131.046 C 214.195 131.347,213.701 131.698,213.423 131.826 C 213.146 131.955,212.825 132.251,212.710 132.484 C 212.595 132.718,212.282 133.100,212.014 133.333 C 211.746 133.567,211.356 134.040,211.148 134.386 C 210.940 134.731,210.561 135.236,210.307 135.509 C 210.052 135.781,209.665 136.551,209.446 137.219 C 209.227 137.887,208.986 138.471,208.911 138.518 C 208.343 138.868,207.983 140.936,208.003 143.732 C 208.024 146.728,208.025 146.733,209.012 148.875 C 209.314 149.529,209.613 150.310,209.676 150.611 C 209.739 150.912,210.012 151.395,210.282 151.684 C 210.552 151.973,210.944 152.551,211.152 152.969 C 211.361 153.387,211.771 153.877,212.064 154.058 C 212.356 154.239,212.678 154.567,212.778 154.787 C 212.879 155.008,213.384 155.401,213.911 155.668 C 214.434 155.932,214.862 156.205,214.862 156.274 C 214.862 156.491,216.095 157.140,217.150 157.477 C 217.707 157.656,218.325 157.907,218.522 158.036 C 219.356 158.583,220.683 158.811,223.032 158.811 C 225.909 158.811,227.024 158.563,229.151 157.450 C 229.303 157.371,229.694 157.256,230.019 157.195 C 230.345 157.134,231.022 156.746,231.525 156.334 C 232.028 155.921,232.498 155.584,232.570 155.584 C 232.642 155.584,233.055 155.240,233.488 154.820 C 233.920 154.399,234.326 154.055,234.388 154.055 C 234.451 154.055,234.684 153.731,234.907 153.336 C 235.129 152.940,235.521 152.424,235.777 152.189 C 236.034 151.954,236.414 151.304,236.622 150.743 C 236.830 150.183,237.091 149.609,237.202 149.469 C 238.158 148.256,238.515 145.149,238.164 141.106 C 237.971 138.886,236.905 136.225,235.645 134.819 C 235.331 134.468,235.074 134.109,235.074 134.020 C 235.074 133.817,234.261 132.994,234.061 132.994 C 233.980 132.994,233.750 132.730,233.551 132.408 C 233.352 132.086,233.031 131.772,232.837 131.710 C 232.643 131.649,232.265 131.349,231.997 131.043 C 231.728 130.738,231.260 130.391,230.956 130.272 C 230.652 130.154,229.831 129.795,229.131 129.475 C 227.816 128.873,227.052 128.680,224.897 128.401 C 222.681 128.115,222.603 127.967,222.326 123.483 C 222.225 121.848,222.065 120.127,221.970 119.660 C 221.875 119.193,221.742 118.224,221.673 117.507 C 221.605 116.790,221.462 116.100,221.357 115.973 C 221.250 115.843,221.086 114.446,220.983 112.776 C 220.882 111.144,220.725 109.193,220.633 108.441 C 220.542 107.689,220.467 106.695,220.467 106.232 C 220.467 105.769,220.380 105.124,220.274 104.797 C 219.945 103.785,219.525 99.924,219.678 99.316 C 219.757 99.002,219.997 98.858,220.844 98.618 C 222.660 98.101,222.828 98.034,223.397 97.604 C 223.700 97.374,224.293 97.097,224.713 96.988 C 225.134 96.878,225.745 96.579,226.072 96.322 C 226.399 96.065,227.017 95.651,227.444 95.402 C 227.872 95.153,228.468 94.643,228.769 94.268 C 229.069 93.894,229.400 93.588,229.504 93.588 C 229.607 93.588,229.942 93.397,230.249 93.163 C 230.920 92.652,231.070 92.641,231.502 93.073 C 231.685 93.256,232.205 93.594,232.656 93.822 C 233.107 94.051,233.624 94.436,233.806 94.677 C 233.987 94.919,234.225 95.117,234.335 95.117 C 234.507 95.117,236.193 96.344,236.433 96.644 C 236.480 96.702,236.753 96.845,237.041 96.961 C 237.328 97.077,237.812 97.436,238.116 97.758 C 238.420 98.080,238.760 98.344,238.870 98.344 C 238.981 98.344,239.432 98.641,239.872 99.005 C 240.312 99.369,241.037 99.879,241.483 100.138 C 241.928 100.398,242.394 100.752,242.517 100.924 C 242.640 101.097,243.115 101.427,243.573 101.659 C 244.030 101.891,244.481 102.225,244.576 102.402 C 244.671 102.579,245.103 102.931,245.537 103.185 C 246.275 103.618,246.730 103.948,247.199 104.390 C 247.308 104.492,247.682 104.712,248.031 104.877 C 248.380 105.043,248.837 105.364,249.046 105.592 C 249.255 105.820,249.828 106.268,250.318 106.589 C 250.809 106.910,251.210 107.239,251.210 107.320 C 251.210 107.402,251.673 107.715,252.239 108.017 C 253.653 108.771,254.015 109.957,253.224 111.253 C 252.224 112.892,252.113 119.438,253.074 120.085 C 253.256 120.207,254.098 121.830,254.098 122.058 C 254.098 122.164,254.346 122.527,254.650 122.865 C 254.953 123.203,255.466 123.851,255.789 124.305 C 256.133 124.789,256.627 125.239,256.980 125.393 C 257.312 125.536,257.944 125.952,258.384 126.315 C 258.830 126.684,259.605 127.106,260.137 127.270 C 260.662 127.431,261.447 127.734,261.883 127.943 C 262.939 128.449,266.880 128.508,267.856 128.033 C 268.816 127.565,270.223 127.049,270.537 127.049 C 270.697 127.049,271.109 126.800,271.452 126.497 C 271.796 126.193,272.249 125.830,272.460 125.690 C 273.095 125.267,274.555 123.778,274.998 123.101 C 275.227 122.751,275.470 122.465,275.538 122.464 C 275.701 122.462,276.268 121.323,276.420 120.689 C 276.487 120.415,276.769 119.730,277.048 119.167 C 277.509 118.239,277.565 117.940,277.656 115.915 L 277.757 113.685 277.053 112.156 C 276.665 111.315,276.348 110.535,276.348 110.424 C 276.348 110.115,275.682 108.874,275.299 108.469 C 275.113 108.272,274.848 107.896,274.711 107.634 C 274.449 107.134,273.877 106.497,273.690 106.497 C 273.630 106.497,273.152 106.144,272.629 105.712 C 272.105 105.280,271.230 104.710,270.683 104.444 C 270.136 104.178,269.601 103.893,269.494 103.811 C 267.946 102.618,262.454 102.834,259.788 104.192 C 259.134 104.525,258.507 104.798,258.395 104.798 C 258.282 104.798,257.808 105.180,257.341 105.648 C 256.228 106.761,255.133 106.856,253.929 105.945 C 252.500 104.863,252.152 104.628,251.979 104.628 C 251.883 104.628,251.440 104.289,250.994 103.875 C 250.549 103.460,250.014 103.068,249.806 103.003 C 249.597 102.938,249.197 102.663,248.917 102.392 C 248.637 102.121,248.089 101.691,247.699 101.438 C 247.310 101.184,246.765 100.775,246.490 100.528 C 246.215 100.281,245.830 100.029,245.636 99.967 C 245.442 99.906,245.037 99.626,244.737 99.345 C 244.437 99.065,243.879 98.651,243.497 98.426 C 243.115 98.200,242.611 97.839,242.378 97.623 C 242.144 97.407,241.571 97.009,241.104 96.739 C 240.637 96.468,240.154 96.107,240.031 95.935 C 239.908 95.763,239.526 95.478,239.182 95.302 C 238.838 95.127,238.403 94.814,238.217 94.608 C 238.030 94.401,237.542 94.036,237.133 93.796 C 236.723 93.556,236.111 93.104,235.774 92.792 C 235.436 92.480,234.847 92.072,234.465 91.886 C 234.083 91.699,233.666 91.337,233.537 91.081 C 233.408 90.825,233.170 90.418,233.007 90.176 C 232.758 89.805,232.746 89.684,232.933 89.411 C 233.055 89.233,233.291 88.628,233.458 88.068 C 233.624 87.507,233.980 86.584,234.248 86.015 C 235.087 84.237,235.486 76.606,234.777 75.898 C 234.660 75.781,234.565 75.582,234.565 75.454 C 234.565 75.327,234.385 74.826,234.166 74.342 C 233.947 73.857,233.634 73.079,233.471 72.611 C 233.165 71.736,232.718 70.807,232.530 70.658 C 231.468 69.813,231.575 67.192,232.686 66.840 C 232.880 66.778,233.156 66.503,233.298 66.228 C 233.440 65.954,234.930 64.350,236.608 62.665 C 238.287 60.980,239.660 59.528,239.660 59.438 C 239.660 59.348,241.113 57.810,242.887 56.020 C 244.662 54.230,246.115 52.663,246.115 52.538 C 246.115 52.413,246.573 51.847,247.134 51.281 C 247.694 50.716,248.153 50.201,248.154 50.137 C 248.155 50.073,248.425 49.838,248.754 49.613 C 249.084 49.389,249.478 48.994,249.631 48.735 C 249.784 48.476,250.077 48.175,250.281 48.065 C 250.708 47.837,252.492 45.783,252.798 45.167 C 253.286 44.186,255.402 44.187,256.645 45.168 C 257.438 45.794,258.125 46.130,258.898 46.270 C 259.250 46.334,260.020 46.602,260.609 46.866 C 263.152 48.007,269.811 47.998,271.762 46.851 C 272.183 46.604,272.870 46.347,273.291 46.280 C 274.157 46.142,275.485 45.521,275.847 45.086 C 275.980 44.925,276.410 44.657,276.802 44.489 C 277.194 44.320,277.631 44.006,277.773 43.790 C 277.915 43.574,278.304 43.250,278.637 43.071 C 278.971 42.891,279.401 42.490,279.593 42.179 C 279.785 41.868,280.010 41.614,280.091 41.614 C 280.293 41.614,281.104 40.789,281.104 40.583 C 281.104 40.492,281.393 40.094,281.746 39.699 C 282.100 39.304,282.534 38.561,282.710 38.047 C 282.887 37.533,283.242 36.845,283.498 36.518 C 283.768 36.174,284.072 35.459,284.219 34.820 C 284.360 34.212,284.633 33.028,284.828 32.187 C 285.305 30.121,285.312 27.102,284.844 25.119 C 284.659 24.335,284.382 23.159,284.228 22.505 C 284.057 21.779,283.758 21.072,283.460 20.689 C 283.192 20.345,282.972 20.015,282.972 19.957 C 282.972 19.638,282.047 17.898,281.778 17.709 C 281.604 17.587,281.255 17.109,281.003 16.645 C 280.751 16.182,280.407 15.759,280.238 15.706 C 280.070 15.653,279.771 15.349,279.575 15.032 C 279.379 14.715,279.080 14.411,278.910 14.357 C 278.740 14.303,278.239 13.917,277.797 13.499 C 277.354 13.081,276.896 12.739,276.778 12.739 C 276.661 12.739,276.268 12.500,275.904 12.209 C 275.127 11.585,274.141 11.135,273.238 10.991 C 272.882 10.935,272.117 10.664,271.539 10.389 C 269.885 9.602,267.149 9.374,263.368 9.707 M8.355 55.888 L 7.983 56.234 7.983 84.215 L 7.983 112.196 8.337 112.499 C 8.765 112.866,14.314 112.854,15.159 112.485 L 15.626 112.280 15.630 98.645 C 15.633 89.881,15.697 84.738,15.810 84.249 C 16.133 82.846,15.983 82.888,20.706 82.883 C 27.011 82.877,26.837 82.975,26.837 79.455 C 26.837 75.439,26.800 75.415,20.649 75.411 C 16.393 75.409,16.541 75.436,16.000 74.545 C 15.487 73.700,15.414 64.760,15.914 64.029 C 16.372 63.359,16.365 63.360,20.637 63.350 C 26.980 63.334,26.798 63.464,26.823 58.928 C 26.839 56.003,26.812 55.942,25.393 55.710 C 23.178 55.348,8.773 55.498,8.355 55.888 M39.839 55.733 C 38.581 56.027,38.482 56.331,38.041 61.231 C 37.940 62.352,37.713 63.919,37.537 64.713 C 36.944 67.383,36.870 67.846,36.594 70.573 C 36.443 72.068,36.246 73.711,36.155 74.225 C 36.065 74.739,35.923 75.624,35.840 76.192 C 35.757 76.761,35.575 77.525,35.435 77.891 C 35.295 78.257,35.097 79.588,34.994 80.849 C 34.734 84.045,34.549 85.397,34.250 86.285 C 33.947 87.185,33.705 88.744,33.380 91.890 C 33.058 94.997,32.657 97.602,32.436 98.014 C 32.223 98.412,32.019 99.944,31.685 103.652 C 31.553 105.123,31.363 106.575,31.262 106.879 C 30.852 108.120,30.403 110.422,30.403 111.281 C 30.403 112.753,30.478 112.781,34.286 112.781 C 38.201 112.781,38.073 112.855,38.248 110.513 C 38.439 107.968,38.697 106.119,38.887 105.928 C 38.985 105.830,39.066 105.503,39.066 105.202 C 39.066 104.901,39.212 103.751,39.391 102.646 C 39.570 101.541,39.765 99.643,39.825 98.429 C 39.884 97.214,39.998 95.992,40.078 95.711 C 40.159 95.431,40.267 95.006,40.320 94.766 C 40.629 93.356,41.621 92.909,44.437 92.909 C 48.732 92.909,48.968 93.145,49.263 97.749 C 49.384 99.631,49.575 101.199,49.761 101.826 C 50.259 103.511,50.579 105.816,51.049 111.112 C 51.187 112.673,51.463 112.781,55.297 112.781 C 59.056 112.781,59.247 112.567,58.597 109.080 C 58.328 107.637,57.808 105.371,57.710 105.210 C 57.657 105.124,57.490 103.983,57.339 102.675 C 56.984 99.599,56.744 98.141,56.557 97.915 C 56.361 97.679,56.149 96.440,55.628 92.484 C 55.394 90.709,55.056 88.798,54.878 88.238 C 54.395 86.717,54.217 85.734,54.019 83.482 C 53.817 81.179,53.655 80.309,52.929 77.622 C 52.791 77.108,52.590 75.771,52.484 74.650 C 52.305 72.758,51.932 70.767,51.373 68.705 C 51.246 68.238,51.094 67.321,51.035 66.667 C 50.841 64.514,50.442 61.993,50.193 61.352 C 50.000 60.857,49.261 56.905,49.258 56.355 C 49.253 55.590,42.384 55.136,39.839 55.733 M65.470 55.958 L 65.053 56.375 65.053 84.131 L 65.053 111.886 65.405 112.334 L 65.757 112.781 68.505 112.780 C 71.223 112.779,72.389 112.623,72.648 112.223 C 72.721 112.110,72.820 105.515,72.866 97.567 C 72.945 84.099,72.971 83.098,73.248 82.821 C 73.412 82.657,73.546 82.453,73.546 82.366 C 73.546 82.279,73.657 82.208,73.792 82.208 C 74.131 82.208,74.518 83.124,74.652 84.246 C 74.769 85.220,75.089 86.329,75.475 87.105 C 75.749 87.654,76.196 89.591,76.344 90.870 C 76.404 91.384,76.669 92.264,76.932 92.824 C 77.214 93.423,77.594 94.781,77.854 96.115 C 78.097 97.365,78.360 98.473,78.439 98.578 C 78.759 99.004,79.155 100.375,79.326 101.656 C 79.497 102.932,79.888 104.316,80.193 104.724 C 80.379 104.972,80.957 107.553,81.103 108.788 C 81.261 110.120,81.739 111.053,82.857 112.209 C 83.230 112.595,88.515 112.539,88.960 112.144 C 89.490 111.673,89.000 107.457,88.260 106.124 C 87.859 105.403,87.758 105.006,87.212 102.011 C 87.060 101.178,86.832 100.337,86.706 100.142 C 86.336 99.573,85.973 98.349,85.794 97.070 C 85.541 95.266,85.319 94.380,84.958 93.742 C 84.561 93.040,84.325 92.096,84.070 90.199 C 83.943 89.245,83.715 88.447,83.391 87.821 C 83.124 87.303,82.852 86.459,82.788 85.945 C 82.598 84.415,82.270 82.991,81.978 82.425 C 81.533 81.566,81.222 80.494,81.101 79.406 C 80.979 78.302,80.381 76.061,80.173 75.924 C 79.269 75.325,79.295 69.979,80.202 69.979 C 80.382 69.979,80.926 68.751,81.103 67.946 C 81.172 67.630,81.448 67.015,81.715 66.581 C 81.983 66.146,82.395 65.276,82.632 64.648 C 82.868 64.019,83.247 63.305,83.474 63.060 C 83.701 62.815,83.937 62.304,83.999 61.923 C 84.132 61.107,84.505 60.240,85.028 59.533 C 85.235 59.253,85.532 58.603,85.687 58.089 C 85.842 57.575,86.040 57.022,86.127 56.860 C 86.655 55.872,85.592 55.541,81.882 55.541 C 77.740 55.541,76.944 55.957,76.412 58.399 C 76.205 59.349,75.947 59.984,75.156 61.486 C 74.934 61.907,74.700 62.587,74.636 62.997 C 74.571 63.408,74.415 63.943,74.288 64.186 C 74.161 64.429,74.057 64.724,74.056 64.841 C 74.054 65.241,73.631 65.051,73.295 64.500 C 72.995 64.007,72.950 63.541,72.870 60.093 C 72.808 57.378,72.720 56.175,72.573 56.029 C 71.937 55.394,66.092 55.336,65.470 55.958 M96.758 55.719 C 96.293 55.797,95.834 55.992,95.702 56.166 C 95.370 56.603,95.338 111.719,95.669 112.133 C 96.148 112.732,96.888 112.781,105.392 112.781 C 115.540 112.781,114.363 113.293,114.284 108.912 C 114.207 104.700,114.828 105.138,108.932 105.138 C 104.295 105.138,104.090 105.124,103.730 104.789 L 103.355 104.439 103.308 93.849 C 103.267 84.347,103.290 83.231,103.533 82.988 C 103.768 82.753,104.445 82.718,108.687 82.718 L 113.571 82.718 113.941 82.325 C 114.580 81.644,114.436 75.474,113.770 75.052 C 113.647 74.974,111.392 74.908,108.760 74.907 L 103.974 74.904 103.622 74.457 C 103.079 73.767,103.074 64.308,103.616 63.726 C 103.956 63.361,104.043 63.355,108.770 63.355 C 114.799 63.355,114.204 63.776,114.283 59.446 C 114.363 55.041,115.470 55.537,105.605 55.561 C 101.191 55.572,97.210 55.643,96.758 55.719 M325.765 55.791 C 325.188 56.105,324.989 56.589,324.739 58.285 C 324.624 59.065,324.459 59.796,324.372 59.910 C 324.284 60.024,324.147 60.789,324.066 61.609 C 323.985 62.429,323.810 64.208,323.677 65.563 C 323.544 66.917,323.311 68.310,323.161 68.657 C 323.011 69.004,322.887 69.553,322.887 69.877 C 322.887 70.201,322.816 70.653,322.730 70.881 C 322.643 71.109,322.488 72.089,322.386 73.058 C 321.788 78.734,321.785 78.758,321.226 80.764 C 321.044 81.418,320.802 83.138,320.689 84.586 C 320.480 87.243,320.254 88.740,319.659 91.380 C 319.277 93.081,319.031 95.030,318.888 97.495 C 318.828 98.526,318.656 99.636,318.479 100.127 C 318.021 101.404,317.828 102.451,317.606 104.883 C 317.410 107.030,316.905 110.703,316.680 111.622 C 316.466 112.494,317.449 112.781,320.648 112.781 C 323.828 112.781,324.019 112.694,324.382 111.083 C 324.498 110.569,324.710 109.614,324.854 108.960 C 324.997 108.306,325.220 106.548,325.349 105.053 C 325.680 101.216,326.067 98.183,326.254 97.949 C 326.342 97.839,326.508 97.062,326.624 96.221 C 327.062 93.026,327.014 93.060,331.072 93.117 L 334.348 93.163 334.595 93.673 C 334.855 94.211,335.019 95.122,335.284 97.501 C 335.373 98.298,335.573 99.204,335.727 99.514 C 336.006 100.073,336.164 101.219,336.477 104.968 C 336.567 106.042,336.713 107.304,336.803 107.771 C 336.893 108.238,337.016 109.040,337.077 109.554 C 337.137 110.068,337.294 110.710,337.426 110.982 C 337.557 111.253,337.665 111.575,337.665 111.697 C 337.665 112.546,338.464 112.781,341.351 112.781 C 345.106 112.781,345.556 112.586,345.070 111.168 C 344.942 110.794,344.785 109.800,344.721 108.960 C 344.597 107.334,344.135 104.581,343.682 102.760 C 343.426 101.735,343.151 99.936,342.770 96.815 C 342.685 96.115,342.485 95.159,342.325 94.692 C 342.031 93.829,341.703 91.947,341.394 89.342 C 341.141 87.206,340.707 84.910,340.448 84.331 C 340.323 84.051,340.141 83.172,340.045 82.378 C 339.464 77.588,339.193 75.905,338.870 75.056 C 338.640 74.452,338.417 73.211,338.259 71.659 C 338.016 69.272,337.917 68.712,337.154 65.393 C 336.950 64.505,336.708 62.900,336.616 61.826 C 336.524 60.752,336.301 59.338,336.121 58.684 C 335.204 55.358,335.548 55.540,330.191 55.548 C 327.113 55.554,326.100 55.609,325.765 55.791 M353.800 55.667 C 352.497 55.824,352.611 53.080,352.611 84.213 L 352.611 112.049 352.969 112.373 C 353.288 112.662,353.661 112.702,356.525 112.749 C 360.840 112.820,360.425 113.405,360.425 107.265 C 360.425 103.216,360.469 102.316,360.698 101.744 L 360.971 101.062 362.609 101.056 C 364.255 101.050,365.067 100.916,367.728 100.213 C 368.823 99.924,369.343 99.682,369.879 99.215 C 372.162 97.226,372.839 96.374,373.181 95.060 C 373.331 94.484,373.579 93.717,373.733 93.355 C 374.198 92.262,374.155 64.867,373.686 63.425 C 373.506 62.872,373.305 62.115,373.239 61.741 C 373.093 60.908,373.071 60.868,372.229 59.861 C 371.189 58.617,369.587 57.070,369.338 57.070 C 369.215 57.070,368.625 56.810,368.026 56.492 C 366.454 55.658,357.964 55.166,353.800 55.667 M382.377 55.702 C 381.040 55.919,381.149 53.323,381.197 83.907 C 381.220 98.994,381.305 111.515,381.386 111.733 C 381.613 112.345,382.217 112.485,385.003 112.572 C 388.012 112.666,388.356 112.607,388.702 111.938 C 389.165 111.043,389.085 56.346,388.620 55.881 C 388.262 55.523,384.194 55.406,382.377 55.702 M365.070 63.853 C 366.361 64.406,366.279 63.476,366.333 78.264 L 366.381 91.560 365.452 92.489 L 364.523 93.418 362.818 93.418 C 360.251 93.418,360.519 95.114,360.461 78.468 L 360.412 64.436 360.770 63.980 C 361.244 63.378,363.785 63.302,365.070 63.853 M331.441 69.426 C 331.587 70.244,331.759 71.945,331.822 73.206 C 331.896 74.679,332.050 75.856,332.253 76.498 C 332.427 77.047,332.569 77.659,332.569 77.857 C 332.568 78.055,332.677 78.713,332.811 79.321 C 333.518 82.533,333.511 84.921,332.795 85.248 C 332.264 85.490,329.721 85.491,329.027 85.249 L 328.493 85.062 328.491 83.338 C 328.489 80.876,328.843 77.735,329.511 74.310 C 329.711 73.282,329.947 71.985,330.036 71.427 C 330.124 70.868,330.268 70.180,330.356 69.898 C 330.443 69.615,330.604 69.023,330.714 68.581 C 330.982 67.499,331.126 67.666,331.441 69.426 M45.374 70.928 C 45.578 71.053,45.917 73.608,46.203 77.179 C 46.292 78.290,46.438 79.436,46.528 79.727 C 46.617 80.017,46.778 80.809,46.885 81.486 C 46.992 82.163,47.149 82.759,47.234 82.812 C 47.713 83.108,47.141 85.072,46.539 85.199 C 46.306 85.249,45.939 85.360,45.724 85.447 C 44.723 85.853,42.064 85.374,41.867 84.752 C 41.704 84.238,41.735 82.787,41.916 82.439 C 42.258 81.787,42.630 79.294,42.890 75.924 C 43.038 74.008,43.274 72.032,43.415 71.532 L 43.672 70.623 44.469 70.742 C 44.907 70.807,45.314 70.891,45.374 70.928 " stroke="none" fill="#202020" fill-rule="evenodd"></path><path id="path1" d="M0.000 84.926 L 0.000 169.851 200.000 169.851 L 400.000 169.851 400.000 84.926 L 400.000 0.000 200.000 0.000 L 0.000 0.000 0.000 84.926 M268.741 9.700 C 270.049 9.841,270.753 10.015,271.539 10.389 C 272.117 10.664,272.882 10.935,273.238 10.991 C 274.141 11.135,275.127 11.585,275.904 12.209 C 276.268 12.500,276.661 12.739,276.778 12.739 C 276.896 12.739,277.354 13.081,277.797 13.499 C 278.239 13.917,278.740 14.303,278.910 14.357 C 279.080 14.411,279.379 14.715,279.575 15.032 C 279.771 15.349,280.070 15.653,280.238 15.706 C 280.407 15.759,280.751 16.182,281.003 16.645 C 281.255 17.109,281.604 17.587,281.778 17.709 C 282.047 17.898,282.972 19.638,282.972 19.957 C 282.972 20.015,283.192 20.345,283.460 20.689 C 283.758 21.072,284.057 21.779,284.228 22.505 C 284.382 23.159,284.659 24.335,284.844 25.119 C 285.312 27.102,285.305 30.121,284.828 32.187 C 284.633 33.028,284.360 34.212,284.219 34.820 C 284.072 35.459,283.768 36.174,283.498 36.518 C 283.242 36.845,282.887 37.533,282.710 38.047 C 282.534 38.561,282.100 39.304,281.746 39.699 C 281.393 40.094,281.104 40.492,281.104 40.583 C 281.104 40.789,280.293 41.614,280.091 41.614 C 280.010 41.614,279.785 41.868,279.593 42.179 C 279.401 42.490,278.971 42.891,278.637 43.071 C 278.304 43.250,277.915 43.574,277.773 43.790 C 277.631 44.006,277.194 44.320,276.802 44.489 C 276.410 44.657,275.980 44.925,275.847 45.086 C 275.485 45.521,274.157 46.142,273.291 46.280 C 272.870 46.347,272.183 46.604,271.762 46.851 C 269.811 47.998,263.152 48.007,260.609 46.866 C 260.020 46.602,259.250 46.334,258.898 46.270 C 258.125 46.130,257.438 45.794,256.645 45.168 C 255.402 44.187,253.286 44.186,252.798 45.167 C 252.492 45.783,250.708 47.837,250.281 48.065 C 250.077 48.175,249.784 48.476,249.631 48.735 C 249.478 48.994,249.084 49.389,248.754 49.613 C 248.425 49.838,248.155 50.073,248.154 50.137 C 248.153 50.201,247.694 50.716,247.134 51.281 C 246.573 51.847,246.115 52.413,246.115 52.538 C 246.115 52.663,244.662 54.230,242.887 56.020 C 241.113 57.810,239.660 59.348,239.660 59.438 C 239.660 59.528,238.287 60.980,236.608 62.665 C 234.930 64.350,233.440 65.954,233.298 66.228 C 233.156 66.503,232.880 66.778,232.686 66.840 C 231.575 67.192,231.468 69.813,232.530 70.658 C 232.718 70.807,233.165 71.736,233.471 72.611 C 233.634 73.079,233.947 73.857,234.166 74.342 C 234.385 74.826,234.565 75.327,234.565 75.454 C 234.565 75.582,234.660 75.781,234.777 75.898 C 235.486 76.606,235.087 84.237,234.248 86.015 C 233.980 86.584,233.624 87.507,233.458 88.068 C 233.291 88.628,233.055 89.233,232.933 89.411 C 232.746 89.684,232.758 89.805,233.007 90.176 C 233.170 90.418,233.408 90.825,233.537 91.081 C 233.666 91.337,234.083 91.699,234.465 91.886 C 234.847 92.072,235.436 92.480,235.774 92.792 C 236.111 93.104,236.723 93.556,237.133 93.796 C 237.542 94.036,238.030 94.401,238.217 94.608 C 238.403 94.814,238.838 95.127,239.182 95.302 C 239.526 95.478,239.908 95.763,240.031 95.935 C 240.154 96.107,240.637 96.468,241.104 96.739 C 241.571 97.009,242.144 97.407,242.378 97.623 C 242.611 97.839,243.115 98.200,243.497 98.426 C 243.879 98.651,244.437 99.065,244.737 99.345 C 245.037 99.626,245.442 99.906,245.636 99.967 C 245.830 100.029,246.215 100.281,246.490 100.528 C 246.765 100.775,247.310 101.184,247.699 101.438 C 248.089 101.691,248.637 102.121,248.917 102.392 C 249.197 102.663,249.597 102.938,249.806 103.003 C 250.014 103.068,250.549 103.460,250.994 103.875 C 251.440 104.289,251.883 104.628,251.979 104.628 C 252.152 104.628,252.500 104.863,253.929 105.945 C 255.133 106.856,256.228 106.761,257.341 105.648 C 257.808 105.180,258.282 104.798,258.395 104.798 C 258.507 104.798,259.134 104.525,259.788 104.192 C 262.454 102.834,267.946 102.618,269.494 103.811 C 269.601 103.893,270.136 104.178,270.683 104.444 C 271.230 104.710,272.105 105.280,272.629 105.712 C 273.152 106.144,273.630 106.497,273.690 106.497 C 273.877 106.497,274.449 107.134,274.711 107.634 C 274.848 107.896,275.113 108.272,275.299 108.469 C 275.682 108.874,276.348 110.115,276.348 110.424 C 276.348 110.535,276.665 111.315,277.053 112.156 L 277.757 113.685 277.656 115.915 C 277.565 117.940,277.509 118.239,277.048 119.167 C 276.769 119.730,276.487 120.415,276.420 120.689 C 276.268 121.323,275.701 122.462,275.538 122.464 C 275.470 122.465,275.227 122.751,274.998 123.101 C 274.555 123.778,273.095 125.267,272.460 125.690 C 272.249 125.830,271.796 126.193,271.452 126.497 C 271.109 126.800,270.697 127.049,270.537 127.049 C 270.223 127.049,268.816 127.565,267.856 128.033 C 266.880 128.508,262.939 128.449,261.883 127.943 C 261.447 127.734,260.662 127.431,260.137 127.270 C 259.605 127.106,258.830 126.684,258.384 126.315 C 257.944 125.952,257.312 125.536,256.980 125.393 C 256.627 125.239,256.133 124.789,255.789 124.305 C 255.466 123.851,254.953 123.203,254.650 122.865 C 254.346 122.527,254.098 122.164,254.098 122.058 C 254.098 121.830,253.256 120.207,253.074 120.085 C 252.113 119.438,252.224 112.892,253.224 111.253 C 254.015 109.957,253.653 108.771,252.239 108.017 C 251.673 107.715,251.210 107.402,251.210 107.320 C 251.210 107.239,250.809 106.910,250.318 106.589 C 249.828 106.268,249.255 105.820,249.046 105.592 C 248.837 105.364,248.380 105.043,248.031 104.877 C 247.682 104.712,247.308 104.492,247.199 104.390 C 246.730 103.948,246.275 103.618,245.537 103.185 C 245.103 102.931,244.671 102.579,244.576 102.402 C 244.481 102.225,244.030 101.891,243.573 101.659 C 243.115 101.427,242.640 101.097,242.517 100.924 C 242.394 100.752,241.928 100.398,241.483 100.138 C 241.037 99.879,240.312 99.369,239.872 99.005 C 239.432 98.641,238.981 98.344,238.870 98.344 C 238.760 98.344,238.420 98.080,238.116 97.758 C 237.812 97.436,237.328 97.077,237.041 96.961 C 236.753 96.845,236.480 96.702,236.433 96.644 C 236.193 96.344,234.507 95.117,234.335 95.117 C 234.225 95.117,233.987 94.919,233.806 94.677 C 233.624 94.436,233.107 94.051,232.656 93.822 C 232.205 93.594,231.685 93.256,231.502 93.073 C 231.070 92.641,230.920 92.652,230.249 93.163 C 229.942 93.397,229.607 93.588,229.504 93.588 C 229.400 93.588,229.069 93.894,228.769 94.268 C 228.468 94.643,227.872 95.153,227.444 95.402 C 227.017 95.651,226.399 96.065,226.072 96.322 C 225.745 96.579,225.134 96.878,224.713 96.988 C 224.293 97.097,223.700 97.374,223.397 97.604 C 222.828 98.034,222.660 98.101,220.844 98.618 C 219.997 98.858,219.757 99.002,219.678 99.316 C 219.525 99.924,219.945 103.785,220.274 104.797 C 220.380 105.124,220.467 105.769,220.467 106.232 C 220.467 106.695,220.542 107.689,220.633 108.441 C 220.725 109.193,220.882 111.144,220.983 112.776 C 221.086 114.446,221.250 115.843,221.357 115.973 C 221.462 116.100,221.605 116.790,221.673 117.507 C 221.742 118.224,221.875 119.193,221.970 119.660 C 222.065 120.127,222.225 121.848,222.326 123.483 C 222.603 127.967,222.681 128.115,224.897 128.401 C 227.052 128.680,227.816 128.873,229.131 129.475 C 229.831 129.795,230.652 130.154,230.956 130.272 C 231.260 130.391,231.728 130.738,231.997 131.043 C 232.265 131.349,232.643 131.649,232.837 131.710 C 233.031 131.772,233.352 132.086,233.551 132.408 C 233.750 132.730,233.980 132.994,234.061 132.994 C 234.261 132.994,235.074 133.817,235.074 134.020 C 235.074 134.109,235.331 134.468,235.645 134.819 C 236.905 136.225,237.971 138.886,238.164 141.106 C 238.515 145.149,238.158 148.256,237.202 149.469 C 237.091 149.609,236.830 150.183,236.622 150.743 C 236.414 151.304,236.034 151.954,235.777 152.189 C 235.521 152.424,235.129 152.940,234.907 153.336 C 234.684 153.731,234.451 154.055,234.388 154.055 C 234.326 154.055,233.920 154.399,233.488 154.820 C 233.055 155.240,232.642 155.584,232.570 155.584 C 232.498 155.584,232.028 155.921,231.525 156.334 C 231.022 156.746,230.345 157.134,230.019 157.195 C 229.694 157.256,229.303 157.371,229.151 157.450 C 227.024 158.563,225.909 158.811,223.032 158.811 C 220.683 158.811,219.356 158.583,218.522 158.036 C 218.325 157.907,217.707 157.656,217.150 157.477 C 216.095 157.140,214.862 156.491,214.862 156.274 C 214.862 156.205,214.434 155.932,213.911 155.668 C 213.384 155.401,212.879 155.008,212.778 154.787 C 212.678 154.567,212.356 154.239,212.064 154.058 C 211.771 153.877,211.361 153.387,211.152 152.969 C 210.944 152.551,210.552 151.973,210.282 151.684 C 210.012 151.395,209.739 150.912,209.676 150.611 C 209.613 150.310,209.314 149.529,209.012 148.875 C 208.025 146.733,208.024 146.728,208.003 143.732 C 207.983 140.936,208.343 138.868,208.911 138.518 C 208.986 138.471,209.227 137.887,209.446 137.219 C 209.665 136.551,210.052 135.781,210.307 135.509 C 210.561 135.236,210.940 134.731,211.148 134.386 C 211.356 134.040,211.746 133.567,212.014 133.333 C 212.282 133.100,212.595 132.718,212.710 132.484 C 212.825 132.251,213.146 131.955,213.423 131.826 C 213.701 131.698,214.195 131.347,214.522 131.046 C 215.091 130.524,216.157 129.936,216.536 129.936 C 216.635 129.936,217.099 129.710,217.568 129.434 C 218.037 129.157,218.843 128.738,219.359 128.502 C 220.380 128.035,220.487 127.791,220.044 126.941 C 219.904 126.673,219.789 126.077,219.789 125.616 C 219.788 125.155,219.677 124.314,219.541 123.748 C 219.405 123.181,219.208 121.265,219.103 119.490 C 218.802 114.393,218.666 113.082,218.368 112.378 C 218.215 112.017,218.089 111.445,218.089 111.107 C 218.089 110.769,217.976 109.690,217.837 108.707 C 217.698 107.725,217.514 105.584,217.427 103.949 C 217.264 100.898,217.113 100.254,216.450 99.796 C 215.810 99.355,214.051 98.867,212.484 98.696 C 210.342 98.462,209.045 98.106,208.504 97.605 C 208.259 97.378,207.711 97.106,207.286 96.998 C 206.549 96.813,206.397 96.729,205.724 96.136 C 204.792 95.314,203.312 95.118,203.312 95.816 C 203.312 95.889,201.860 97.409,200.085 99.193 C 198.310 100.978,196.858 102.539,196.858 102.662 C 196.858 102.785,196.591 103.068,196.264 103.290 C 195.938 103.512,195.671 103.755,195.670 103.828 C 195.669 103.902,195.344 104.267,194.947 104.640 C 194.550 105.013,194.149 105.397,194.055 105.494 C 193.962 105.591,193.446 106.121,192.909 106.672 C 192.372 107.223,191.932 107.740,191.932 107.821 C 191.932 107.902,191.734 108.074,191.493 108.203 C 191.251 108.332,190.938 108.662,190.797 108.936 C 190.655 109.209,189.534 110.441,188.306 111.674 C 187.077 112.907,185.575 114.517,184.968 115.252 C 184.361 115.988,182.947 117.518,181.826 118.654 C 178.858 121.661,179.126 121.246,179.443 122.335 C 179.592 122.848,179.908 123.443,180.151 123.669 C 180.392 123.893,180.814 124.564,181.088 125.160 C 181.363 125.756,181.779 126.495,182.013 126.801 C 182.302 127.180,182.492 127.732,182.606 128.520 C 182.699 129.159,182.852 129.866,182.946 130.091 C 183.244 130.803,183.911 134.137,183.837 134.550 C 183.799 134.768,183.700 135.558,183.617 136.306 C 183.454 137.780,183.138 139.263,182.929 139.533 C 182.857 139.626,182.745 140.123,182.680 140.637 C 182.572 141.485,182.058 142.803,181.751 143.015 C 181.683 143.062,181.416 143.551,181.158 144.102 C 180.899 144.653,180.535 145.264,180.349 145.461 C 180.162 145.657,179.762 146.200,179.460 146.667 C 179.158 147.134,178.719 147.617,178.486 147.742 C 178.253 147.866,177.928 148.193,177.765 148.470 C 177.602 148.746,177.172 149.159,176.809 149.388 C 176.447 149.617,176.071 149.952,175.975 150.133 C 175.878 150.313,175.512 150.556,175.161 150.672 C 174.434 150.911,173.879 151.227,173.057 151.869 C 172.692 152.154,172.104 152.381,171.435 152.496 C 170.858 152.594,169.788 152.920,169.057 153.220 C 167.742 153.759,167.697 153.765,164.756 153.779 L 161.783 153.792 160.000 153.174 C 159.019 152.835,157.911 152.507,157.537 152.446 C 157.163 152.386,156.552 152.115,156.178 151.844 C 155.805 151.574,155.098 151.159,154.607 150.923 C 154.117 150.686,153.715 150.428,153.715 150.349 C 153.715 150.270,153.219 149.868,152.613 149.457 C 151.953 149.010,151.186 148.281,150.706 147.645 C 150.264 147.060,149.844 146.582,149.772 146.582 C 149.701 146.582,149.414 146.178,149.136 145.685 C 148.857 145.191,148.485 144.633,148.309 144.444 C 148.133 144.255,147.889 143.799,147.768 143.431 C 147.646 143.062,147.334 142.351,147.074 141.850 C 145.327 138.483,145.338 131.008,147.095 127.474 C 147.374 126.913,147.676 126.149,147.767 125.775 C 147.859 125.401,148.116 124.899,148.340 124.659 C 148.564 124.419,148.941 123.914,149.179 123.538 C 149.416 123.162,149.999 122.456,150.474 121.968 C 150.949 121.480,151.338 121.019,151.338 120.943 C 151.338 120.868,151.557 120.715,151.824 120.604 C 152.092 120.493,152.415 120.208,152.542 119.970 C 152.679 119.715,153.196 119.339,153.807 119.050 C 154.375 118.782,155.016 118.374,155.233 118.144 C 155.449 117.914,156.056 117.593,156.581 117.432 C 157.107 117.271,158.100 116.879,158.787 116.561 C 159.983 116.009,161.429 115.776,164.501 115.640 C 166.428 115.555,170.330 116.196,171.007 116.710 C 171.384 116.995,172.456 117.387,173.480 117.615 C 173.747 117.674,174.206 117.972,174.499 118.277 C 175.040 118.840,175.620 119.129,176.589 119.320 C 177.145 119.430,179.344 117.544,179.604 116.735 C 179.657 116.569,179.930 116.280,180.211 116.093 C 180.491 115.907,180.721 115.692,180.721 115.617 C 180.722 115.542,181.161 115.032,181.699 114.484 C 182.236 113.935,182.752 113.406,182.845 113.307 C 182.938 113.208,183.684 112.479,184.501 111.686 C 185.318 110.893,185.987 110.196,185.987 110.137 C 185.987 109.992,186.692 109.252,190.446 105.457 C 192.197 103.687,193.631 102.158,193.631 102.061 C 193.631 101.964,193.917 101.594,194.268 101.240 C 194.618 100.886,195.027 100.452,195.178 100.277 C 195.328 100.101,195.672 99.763,195.942 99.526 C 196.212 99.289,196.598 98.907,196.800 98.677 C 197.002 98.447,197.704 97.746,198.359 97.118 C 199.015 96.491,199.801 95.612,200.105 95.165 C 200.410 94.718,200.787 94.260,200.943 94.147 C 201.833 93.502,201.719 92.044,200.689 90.902 C 200.378 90.558,200.011 90.004,199.872 89.672 C 199.734 89.340,199.423 88.855,199.182 88.595 C 198.908 88.299,198.672 87.762,198.551 87.161 C 198.314 85.975,197.911 84.472,197.681 83.909 C 197.074 82.428,197.023 77.941,197.599 76.811 C 197.822 76.374,197.912 76.028,198.481 73.405 C 198.639 72.675,198.879 72.142,199.230 71.743 C 199.513 71.420,199.745 71.075,199.745 70.975 C 199.745 70.727,200.264 69.611,200.525 69.299 C 201.197 68.496,198.400 64.748,196.275 63.604 C 195.975 63.442,195.554 63.053,195.338 62.738 C 195.123 62.424,194.689 62.007,194.373 61.813 C 194.058 61.618,193.800 61.385,193.800 61.295 C 193.800 61.114,193.441 60.759,192.102 59.618 C 191.609 59.197,190.708 58.376,190.101 57.792 C 189.493 57.208,188.931 56.730,188.851 56.730 C 188.770 56.730,188.705 56.621,188.705 56.487 C 188.705 56.353,188.456 56.072,188.153 55.862 C 187.254 55.239,183.963 52.239,183.665 51.770 C 183.588 51.648,183.080 51.211,182.537 50.799 C 181.994 50.386,181.459 49.926,181.348 49.777 C 181.237 49.628,180.955 49.384,180.722 49.235 C 180.488 49.086,179.946 48.602,179.516 48.160 L 178.736 47.356 177.684 47.652 C 177.103 47.815,176.317 48.196,175.928 48.503 C 175.541 48.810,174.914 49.140,174.534 49.237 C 174.154 49.334,173.193 49.582,172.399 49.786 C 170.284 50.332,169.463 50.359,167.808 49.934 C 167.017 49.731,165.873 49.450,165.265 49.310 C 164.480 49.129,164.024 48.912,163.685 48.561 C 163.424 48.290,162.966 47.941,162.668 47.787 C 162.022 47.453,160.170 45.689,160.170 45.408 C 160.170 45.299,159.940 45.017,159.659 44.781 C 159.190 44.386,158.670 43.360,157.582 40.679 C 156.789 38.727,157.116 34.620,158.230 32.527 C 158.528 31.966,158.828 31.316,158.896 31.083 C 158.965 30.849,159.237 30.429,159.502 30.149 C 161.434 28.106,162.586 27.019,162.921 26.921 C 163.136 26.858,163.699 26.547,164.173 26.228 C 166.585 24.605,173.143 24.604,175.541 26.226 C 176.008 26.542,176.579 26.857,176.809 26.927 C 177.040 26.996,177.471 27.302,177.767 27.608 C 178.064 27.913,178.499 28.289,178.735 28.444 C 178.971 28.598,179.286 28.982,179.435 29.295 C 179.584 29.609,179.933 30.057,180.211 30.292 C 180.499 30.533,180.834 31.071,180.988 31.537 C 181.138 31.988,181.537 32.926,181.877 33.622 L 182.494 34.887 182.483 37.557 C 182.473 40.169,182.347 40.946,181.826 41.614 C 181.717 41.754,181.530 42.136,181.412 42.463 C 181.294 42.790,181.134 43.210,181.057 43.397 C 180.980 43.584,180.873 44.123,180.818 44.596 L 180.719 45.455 181.728 46.401 C 182.283 46.921,183.009 47.515,183.343 47.721 C 183.676 47.927,183.949 48.153,183.949 48.223 C 183.949 48.294,184.185 48.574,184.472 48.846 C 184.760 49.119,185.620 49.954,186.383 50.701 C 187.146 51.449,188.057 52.252,188.408 52.485 C 188.758 52.718,189.083 53.025,189.129 53.168 C 189.175 53.311,189.378 53.540,189.580 53.678 C 189.782 53.815,190.107 54.116,190.302 54.346 C 190.498 54.576,190.883 54.958,191.158 55.195 C 191.433 55.432,191.985 55.951,192.383 56.348 C 192.782 56.745,193.172 57.070,193.249 57.070 C 193.326 57.070,194.086 57.739,194.936 58.556 C 196.295 59.862,198.205 61.575,198.864 62.080 C 198.987 62.174,199.800 62.958,200.671 63.822 C 202.664 65.798,203.695 65.935,205.260 64.433 C 205.831 63.885,206.238 63.650,207.122 63.359 C 207.460 63.247,207.945 62.981,208.200 62.768 C 208.687 62.361,209.801 62.001,211.633 61.659 C 212.239 61.546,212.942 61.346,213.195 61.215 C 213.858 60.872,218.046 60.883,218.874 61.229 C 219.206 61.368,219.987 61.566,220.610 61.670 C 222.093 61.917,223.492 62.315,223.622 62.527 C 223.680 62.619,224.250 62.950,224.890 63.261 C 225.529 63.572,226.420 64.126,226.869 64.492 C 227.318 64.858,228.091 65.296,228.587 65.465 L 229.489 65.774 229.938 65.371 C 230.186 65.149,230.484 64.892,230.602 64.798 C 231.142 64.370,231.325 64.196,231.536 63.909 C 231.660 63.739,231.983 63.430,232.252 63.223 C 232.522 63.015,233.018 62.477,233.356 62.028 C 233.694 61.578,234.219 60.948,234.523 60.626 C 234.827 60.305,235.118 59.909,235.171 59.745 C 235.224 59.582,235.324 59.448,235.395 59.448 C 235.465 59.448,236.243 58.714,237.124 57.817 C 238.005 56.920,238.871 56.060,239.048 55.906 C 239.224 55.752,239.492 55.482,239.642 55.305 C 239.792 55.128,240.244 54.593,240.647 54.116 C 241.797 52.751,241.943 52.591,242.386 52.211 C 242.615 52.014,242.997 51.631,243.234 51.361 C 243.471 51.091,243.853 50.701,244.083 50.493 C 245.463 49.247,247.429 47.115,247.554 46.729 C 247.603 46.578,247.913 46.271,248.243 46.046 C 248.573 45.822,248.969 45.427,249.121 45.168 C 249.274 44.909,249.584 44.599,249.810 44.478 C 250.035 44.357,250.378 44.026,250.571 43.743 C 250.764 43.459,251.197 42.984,251.533 42.688 C 252.105 42.183,252.129 42.123,251.903 41.753 C 251.770 41.536,251.354 40.786,250.979 40.085 C 250.603 39.384,250.089 38.544,249.836 38.217 C 249.583 37.890,249.322 37.431,249.255 37.197 C 249.189 36.964,248.912 36.299,248.640 35.720 C 247.478 33.252,247.112 30.360,247.450 26.324 C 247.654 23.894,247.805 23.284,248.645 21.519 C 248.921 20.941,249.202 20.238,249.269 19.958 C 249.337 19.677,249.598 19.180,249.850 18.854 C 250.102 18.527,250.519 17.896,250.776 17.452 C 251.033 17.007,251.410 16.511,251.614 16.348 C 251.817 16.184,252.211 15.727,252.489 15.332 C 252.766 14.936,253.108 14.572,253.248 14.523 C 253.389 14.474,253.903 14.061,254.392 13.605 C 254.881 13.150,255.492 12.724,255.750 12.659 C 256.007 12.595,256.581 12.281,257.025 11.962 C 257.470 11.643,258.349 11.236,258.980 11.059 C 259.611 10.881,260.477 10.538,260.905 10.296 C 262.091 9.623,265.576 9.359,268.741 9.700 M25.393 55.710 C 26.812 55.942,26.839 56.003,26.823 58.928 C 26.798 63.464,26.980 63.334,20.637 63.350 C 16.365 63.360,16.372 63.359,15.914 64.029 C 15.414 64.760,15.487 73.700,16.000 74.545 C 16.541 75.436,16.393 75.409,20.649 75.411 C 26.800 75.415,26.837 75.439,26.837 79.455 C 26.837 82.975,27.011 82.877,20.706 82.883 C 15.983 82.888,16.133 82.846,15.810 84.249 C 15.697 84.738,15.633 89.881,15.630 98.645 L 15.626 112.280 15.159 112.485 C 14.314 112.854,8.765 112.866,8.337 112.499 L 7.983 112.196 7.983 84.215 L 7.983 56.234 8.355 55.888 C 8.773 55.498,23.178 55.348,25.393 55.710 M48.885 55.888 C 49.090 56.078,49.257 56.288,49.258 56.355 C 49.261 56.905,50.000 60.857,50.193 61.352 C 50.442 61.993,50.841 64.514,51.035 66.667 C 51.094 67.321,51.246 68.238,51.373 68.705 C 51.932 70.767,52.305 72.758,52.484 74.650 C 52.590 75.771,52.791 77.108,52.929 77.622 C 53.655 80.309,53.817 81.179,54.019 83.482 C 54.217 85.734,54.395 86.717,54.878 88.238 C 55.056 88.798,55.394 90.709,55.628 92.484 C 56.149 96.440,56.361 97.679,56.557 97.915 C 56.744 98.141,56.984 99.599,57.339 102.675 C 57.490 103.983,57.657 105.124,57.710 105.210 C 57.808 105.371,58.328 107.637,58.597 109.080 C 59.247 112.567,59.056 112.781,55.297 112.781 C 51.463 112.781,51.187 112.673,51.049 111.112 C 50.579 105.816,50.259 103.511,49.761 101.826 C 49.575 101.199,49.384 99.631,49.263 97.749 C 48.968 93.145,48.732 92.909,44.437 92.909 C 41.621 92.909,40.629 93.356,40.320 94.766 C 40.267 95.006,40.159 95.431,40.078 95.711 C 39.998 95.992,39.884 97.214,39.825 98.429 C 39.765 99.643,39.570 101.541,39.391 102.646 C 39.212 103.751,39.066 104.901,39.066 105.202 C 39.066 105.503,38.985 105.830,38.887 105.928 C 38.697 106.119,38.439 107.968,38.248 110.513 C 38.073 112.855,38.201 112.781,34.286 112.781 C 30.478 112.781,30.403 112.753,30.403 111.281 C 30.403 110.422,30.852 108.120,31.262 106.879 C 31.363 106.575,31.553 105.123,31.685 103.652 C 32.019 99.944,32.223 98.412,32.436 98.014 C 32.657 97.602,33.058 94.997,33.380 91.890 C 33.705 88.744,33.947 87.185,34.250 86.285 C 34.549 85.397,34.734 84.045,34.994 80.849 C 35.097 79.588,35.295 78.257,35.435 77.891 C 35.575 77.525,35.757 76.761,35.840 76.192 C 35.923 75.624,36.065 74.739,36.155 74.225 C 36.246 73.711,36.443 72.068,36.594 70.573 C 36.870 67.846,36.944 67.383,37.537 64.713 C 37.713 63.919,37.940 62.352,38.041 61.231 C 38.482 56.331,38.581 56.027,39.839 55.733 C 41.333 55.383,48.474 55.505,48.885 55.888 M71.469 55.694 C 72.811 55.885,72.770 55.756,72.870 60.093 C 72.950 63.541,72.995 64.007,73.295 64.500 C 73.631 65.051,74.054 65.241,74.056 64.841 C 74.057 64.724,74.161 64.429,74.288 64.186 C 74.415 63.943,74.571 63.408,74.636 62.997 C 74.700 62.587,74.934 61.907,75.156 61.486 C 75.947 59.984,76.205 59.349,76.412 58.399 C 76.944 55.957,77.740 55.541,81.882 55.541 C 85.592 55.541,86.655 55.872,86.127 56.860 C 86.040 57.022,85.842 57.575,85.687 58.089 C 85.532 58.603,85.235 59.253,85.028 59.533 C 84.505 60.240,84.132 61.107,83.999 61.923 C 83.937 62.304,83.701 62.815,83.474 63.060 C 83.247 63.305,82.868 64.019,82.632 64.648 C 82.395 65.276,81.983 66.146,81.715 66.581 C 81.448 67.015,81.172 67.630,81.103 67.946 C 80.926 68.751,80.382 69.979,80.202 69.979 C 79.295 69.979,79.269 75.325,80.173 75.924 C 80.381 76.061,80.979 78.302,81.101 79.406 C 81.222 80.494,81.533 81.566,81.978 82.425 C 82.270 82.991,82.598 84.415,82.788 85.945 C 82.852 86.459,83.124 87.303,83.391 87.821 C 83.715 88.447,83.943 89.245,84.070 90.199 C 84.325 92.096,84.561 93.040,84.958 93.742 C 85.319 94.380,85.541 95.266,85.794 97.070 C 85.973 98.349,86.336 99.573,86.706 100.142 C 86.832 100.337,87.060 101.178,87.212 102.011 C 87.758 105.006,87.859 105.403,88.260 106.124 C 89.000 107.457,89.490 111.673,88.960 112.144 C 88.515 112.539,83.230 112.595,82.857 112.209 C 81.739 111.053,81.261 110.120,81.103 108.788 C 80.957 107.553,80.379 104.972,80.193 104.724 C 79.888 104.316,79.497 102.932,79.326 101.656 C 79.155 100.375,78.759 99.004,78.439 98.578 C 78.360 98.473,78.097 97.365,77.854 96.115 C 77.594 94.781,77.214 93.423,76.932 92.824 C 76.669 92.264,76.404 91.384,76.344 90.870 C 76.196 89.591,75.749 87.654,75.475 87.105 C 75.089 86.329,74.769 85.220,74.652 84.246 C 74.518 83.124,74.131 82.208,73.792 82.208 C 73.657 82.208,73.546 82.279,73.546 82.366 C 73.546 82.453,73.412 82.657,73.248 82.821 C 72.971 83.098,72.945 84.099,72.866 97.567 C 72.820 105.515,72.721 112.110,72.648 112.223 C 72.389 112.623,71.223 112.779,68.505 112.780 L 65.757 112.781 65.405 112.334 L 65.053 111.886 65.053 84.131 L 65.053 56.375 65.470 55.958 C 65.917 55.511,69.177 55.367,71.469 55.694 M113.986 55.897 C 114.326 56.237,114.339 56.391,114.283 59.446 C 114.204 63.776,114.799 63.355,108.770 63.355 C 104.043 63.355,103.956 63.361,103.616 63.726 C 103.074 64.308,103.079 73.767,103.622 74.457 L 103.974 74.904 108.760 74.907 C 111.392 74.908,113.647 74.974,113.770 75.052 C 114.436 75.474,114.580 81.644,113.941 82.325 L 113.571 82.718 108.687 82.718 C 104.445 82.718,103.768 82.753,103.533 82.988 C 103.290 83.231,103.267 84.347,103.308 93.849 L 103.355 104.439 103.730 104.789 C 104.090 105.124,104.295 105.138,108.932 105.138 C 114.828 105.138,114.207 104.700,114.284 108.912 C 114.363 113.293,115.540 112.781,105.392 112.781 C 96.888 112.781,96.148 112.732,95.669 112.133 C 95.338 111.719,95.370 56.603,95.702 56.166 C 96.252 55.440,113.278 55.189,113.986 55.897 M334.777 55.839 C 335.218 56.059,335.426 56.311,335.582 56.815 C 336.217 58.860,336.465 60.066,336.616 61.826 C 336.708 62.900,336.950 64.505,337.154 65.393 C 337.917 68.712,338.016 69.272,338.259 71.659 C 338.417 73.211,338.640 74.452,338.870 75.056 C 339.193 75.905,339.464 77.588,340.045 82.378 C 340.141 83.172,340.323 84.051,340.448 84.331 C 340.707 84.910,341.141 87.206,341.394 89.342 C 341.703 91.947,342.031 93.829,342.325 94.692 C 342.485 95.159,342.685 96.115,342.770 96.815 C 343.151 99.936,343.426 101.735,343.682 102.760 C 344.135 104.581,344.597 107.334,344.721 108.960 C 344.785 109.800,344.942 110.794,345.070 111.168 C 345.556 112.586,345.106 112.781,341.351 112.781 C 338.464 112.781,337.665 112.546,337.665 111.697 C 337.665 111.575,337.557 111.253,337.426 110.982 C 337.294 110.710,337.137 110.068,337.077 109.554 C 337.016 109.040,336.893 108.238,336.803 107.771 C 336.713 107.304,336.567 106.042,336.477 104.968 C 336.164 101.219,336.006 100.073,335.727 99.514 C 335.573 99.204,335.373 98.298,335.284 97.501 C 335.019 95.122,334.855 94.211,334.595 93.673 L 334.348 93.163 331.072 93.117 C 327.014 93.060,327.062 93.026,326.624 96.221 C 326.508 97.062,326.342 97.839,326.254 97.949 C 326.067 98.183,325.680 101.216,325.349 105.053 C 325.220 106.548,324.997 108.306,324.854 108.960 C 323.959 113.035,324.238 112.781,320.648 112.781 C 317.449 112.781,316.466 112.494,316.680 111.622 C 316.905 110.703,317.410 107.030,317.606 104.883 C 317.828 102.451,318.021 101.404,318.479 100.127 C 318.656 99.636,318.828 98.526,318.888 97.495 C 319.031 95.030,319.277 93.081,319.659 91.380 C 320.254 88.740,320.480 87.243,320.689 84.586 C 320.802 83.138,321.044 81.418,321.226 80.764 C 321.785 78.758,321.788 78.734,322.386 73.058 C 322.488 72.089,322.643 71.109,322.730 70.881 C 322.816 70.653,322.887 70.201,322.887 69.877 C 322.887 69.553,323.011 69.004,323.161 68.657 C 323.311 68.310,323.544 66.917,323.677 65.563 C 323.810 64.208,323.985 62.429,324.066 61.609 C 324.147 60.789,324.284 60.024,324.372 59.910 C 324.459 59.796,324.624 59.065,324.739 58.285 C 325.149 55.502,325.040 55.557,330.191 55.548 C 333.660 55.543,334.260 55.581,334.777 55.839 M365.421 55.728 C 366.583 55.871,367.190 56.049,368.026 56.492 C 368.625 56.810,369.215 57.070,369.338 57.070 C 369.587 57.070,371.189 58.617,372.229 59.861 C 373.071 60.868,373.093 60.908,373.239 61.741 C 373.305 62.115,373.506 62.872,373.686 63.425 C 374.155 64.867,374.198 92.262,373.733 93.355 C 373.579 93.717,373.331 94.484,373.181 95.060 C 372.839 96.374,372.162 97.226,369.879 99.215 C 369.343 99.682,368.823 99.924,367.728 100.213 C 365.067 100.916,364.255 101.050,362.609 101.056 L 360.971 101.062 360.698 101.744 C 360.469 102.316,360.425 103.216,360.425 107.265 C 360.425 113.405,360.840 112.820,356.525 112.749 C 353.661 112.702,353.288 112.662,352.969 112.373 L 352.611 112.049 352.611 84.213 C 352.611 53.080,352.497 55.824,353.800 55.667 C 355.122 55.508,364.008 55.555,365.421 55.728 M388.620 55.881 C 389.085 56.346,389.165 111.043,388.702 111.938 C 388.356 112.607,388.012 112.666,385.003 112.572 C 382.217 112.485,381.613 112.345,381.386 111.733 C 381.101 110.964,381.118 56.522,381.404 56.147 C 381.918 55.472,387.987 55.248,388.620 55.881 M360.770 63.980 L 360.412 64.436 360.461 78.468 C 360.519 95.114,360.251 93.418,362.818 93.418 L 364.523 93.418 365.452 92.489 L 366.381 91.560 366.333 78.264 C 366.294 67.631,366.240 64.889,366.060 64.575 C 365.436 63.480,361.511 63.039,360.770 63.980 M330.714 68.581 C 330.604 69.023,330.443 69.615,330.356 69.898 C 330.268 70.180,330.124 70.868,330.036 71.427 C 329.947 71.985,329.711 73.282,329.511 74.310 C 328.843 77.735,328.489 80.876,328.491 83.338 L 328.493 85.062 329.027 85.249 C 329.721 85.491,332.264 85.490,332.795 85.248 C 333.511 84.921,333.518 82.533,332.811 79.321 C 332.677 78.713,332.568 78.055,332.569 77.857 C 332.569 77.659,332.427 77.047,332.253 76.498 C 332.050 75.856,331.896 74.679,331.822 73.206 C 331.706 70.895,331.286 68.007,331.044 67.858 C 330.972 67.813,330.823 68.139,330.714 68.581 M43.415 71.532 C 43.274 72.032,43.038 74.008,42.890 75.924 C 42.630 79.294,42.258 81.787,41.916 82.439 C 41.735 82.787,41.704 84.238,41.867 84.752 C 42.064 85.374,44.723 85.853,45.724 85.447 C 45.939 85.360,46.306 85.249,46.539 85.199 C 47.141 85.072,47.713 83.108,47.234 82.812 C 47.149 82.759,46.992 82.163,46.885 81.486 C 46.778 80.809,46.617 80.017,46.528 79.727 C 46.438 79.436,46.292 78.290,46.203 77.179 C 45.917 73.608,45.578 71.053,45.374 70.928 C 45.314 70.891,44.907 70.807,44.469 70.742 L 43.672 70.623 43.415 71.532 " stroke="none" fill="#ffffff" fill-rule="evenodd"></path></g></svg>